<svg id="图层_1" data-name="图层 1" xmlns="http://www.w3.org/2000/svg" viewBox="0 0 200 50"><defs><style>.cls-1{fill:#ce4c3c;}.cls-2{fill:#209a6e;}.cls-3{fill:#df9225;}</style></defs><title>dy</title><path class="cls-1" d="M84.4,8h-2V19.63H71.06V31.19H97.28V19.63H84.4ZM95.3,21.42v8H73.06V21.42Z"/><path class="cls-2" d="M174.42,12.07V10.22H140.59v1.85h15.17l-1.92,5.56H142.49V42.75h1.93V40.54h26.07v2.21h1.9V17.63H155.87l2-5.56Zm-23.33,26.7-6.67-19.38h6.67Zm10.82,0L153,33.51h8.95Zm-8.95-7V26.44l8.95,5.38Zm10.82-12.43,6.71,19.38h-6.71Zm-1.87,0v5.34L153,19.39Z"/><circle class="cls-1" cx="72.96" cy="40.41" r="1.89"/><circle class="cls-1" cx="80.52" cy="40.41" r="1.89"/><circle class="cls-1" cx="88.09" cy="40.41" r="1.89"/><circle class="cls-1" cx="95.66" cy="40.41" r="1.89"/><circle class="cls-1" cx="91.65" cy="13.45" r="3"/><path class="cls-3" d="M110.13,21.6c-1.71,2.69-3.17,4.8-4.38,6.35a7.65,7.65,0,0,1-1.91,1.87l.74,1.91q3.63-.54,9.65-1a16.15,16.15,0,0,1,.29-1.77q-4.53.33-7.77.67,4.44-6.18,8.65-13.07l-1.87-.81c-.61,1.12-1.4,2.49-2.35,4.12l-3.65.09-1.89.05q2.31-3.28,6.74-11.11l-1.94-.77a68.72,68.72,0,0,1-5.79,10.19,9.23,9.23,0,0,1-1.51,1.73l.81,1.85Q106.47,21.65,110.13,21.6Z"/><path class="cls-3" d="M115.26,35.72q-7.41,1.37-11.8,1.94l.52,2q6.75-1.26,11.2-2A12.56,12.56,0,0,1,115.26,35.72Z"/><path class="cls-3" d="M136.45,33.27q-.48,2.85-1,5c-.37,1.57-1.09,2.33-2.14,2.29q-3,0-5.38-5.2a56.72,56.72,0,0,0,7.82-7l-1.51-1.19a52,52,0,0,1-7,6.46c0-.07-.06-.18-.11-.31-.15-.41-.25-.72-.33-1a38.4,38.4,0,0,1-1.51-6L138,24.48l-.24-1.76-12.85,1.87c-.13-.85-.55-3.73-.77-7,0-.51-.06-1-.08-1.53h12.63V14.38H124c-.1-2.66-.12-5.1-.13-6.21h-2c0,1.27,0,3.63.16,6.21h-5.57V16.1h5.65l.09,1.56c.23,3.16.67,6.07.82,7.18l-7.33,1.08.3,1.72,7.32-1A50.14,50.14,0,0,0,125,33.24a12.06,12.06,0,0,0,.5,1.47,54.54,54.54,0,0,1-11.22,5.54A10.52,10.52,0,0,1,115.51,42a64.16,64.16,0,0,0,10.79-5.52q2.88,6,7.06,6c1.95,0,3.22-1.08,3.79-3.25A40.3,40.3,0,0,0,138.23,34,9.33,9.33,0,0,1,136.45,33.27Z"/><rect class="cls-3" x="127.1" y="11.09" width="7.79" height="1.72"/><path class="cls-2" d="M65.09,10.11h0a16.51,16.51,0,0,0-15.5,10.81,16.59,16.59,0,0,1,1,5.7A14.49,14.49,0,0,1,65.09,12.12h0a1,1,0,0,0,0-2Z"/><path class="cls-3" d="M49.59,20.91A16.53,16.53,0,0,0,34.08,10.1h0a1,1,0,0,0,0,2h0a14.49,14.49,0,1,1,0,29v0a1,1,0,0,0,0,2h0A16.52,16.52,0,0,0,49.59,20.91Z"/><path class="cls-1" d="M29.2,10.11a1,1,0,0,0-1,1v31a1,1,0,0,0,2,0v-31A1,1,0,0,0,29.2,10.11Z"/></svg>