<?xml version="1.0" encoding="utf-8"?>
<!-- Generator: Adobe Illustrator 23.0.0, SVG Export Plug-In . SVG Version: 6.00 Build 0)  -->
<svg version="1.1" id="图层_1" xmlns="http://www.w3.org/2000/svg" xmlns:xlink="http://www.w3.org/1999/xlink" x="0px" y="0px"
	 viewBox="0 0 400 100" style="enable-background:new 0 0 400 100;" xml:space="preserve">
<style type="text/css">
	.st0{fill:#E60012;}
	.st1{fill:#040000;}
</style>
<path class="st0" d="M10.22,13.79h18.21c10.94,0,19.15,6.92,19.15,20.87C47.58,46.9,41.31,56,28.43,56H10.22V13.79z M19.5,48.2h8.28
	c5.38,0,10.52-3.31,10.52-12.65c0-8.51-3.01-13.95-12.18-13.95H19.5V48.2z"/>
<path class="st0" d="M64.95,39.57L49.41,13.79h10.46l9.87,16.67l9.81-16.67H89.9L74.24,39.8V56h-9.28V39.57z"/>
<path class="st1" d="M100.6,13.79h9.52L125.9,56h-9.64l-3.19-9.4H97.29L93.98,56h-9.4L100.6,13.79z M99.71,39.68h10.94l-5.32-15.49
	h-0.12L99.71,39.68z"/>
<path class="st1" d="M129.56,13.79h22.76c7.57,0,12.19,5.79,12.19,13.15s-2.61,9.56-2.61,9.56s2.77,2.64,2.77,11.07s0,8.42,0,8.42
	h-9.52c0,0,0-4.42,0-8.54s-2.36-6.66-7.03-6.66h-9.28V56h-9.28V13.79z M138.84,32.89h10.17c4.2,0,6.38-1.77,6.38-6.03
	c0-4.08-2.19-5.85-6.38-5.85h-10.17V32.89z"/>
<path class="st1" d="M180.52,21.6h-12.65v-7.8h34.58v7.8H189.8V56h-9.28V21.6z"/>
<path class="st1" d="M213.62,41.99c0,5.62,4.37,7.8,9.34,7.8c3.25,0,8.22-0.95,8.22-5.26c0-4.61-6.38-5.26-12.53-6.98
	c-6.27-1.54-12.59-4.2-12.59-12c0-8.69,8.16-12.77,15.78-12.77c8.81,0,16.91,3.84,16.91,13.6h-8.98c-0.3-5.02-3.84-6.38-8.34-6.38
	c-2.95,0-6.38,1.24-6.38,4.79c0,3.25,2.01,3.72,12.59,6.38c3.13,0.71,12.53,2.78,12.53,12.29c0,7.74-6.03,13.54-17.56,13.54
	c-9.34,0-18.15-4.61-17.97-15.01H213.62z"/>
<path class="st1" d="M254.99,21.6h-12.65v-7.8h34.58v7.8h-12.65V56h-9.28V21.6z"/>
<path class="st1" d="M292.71,39.57l-15.55-25.77h10.46l9.87,16.67l9.81-16.67h10.34L301.99,39.8V56h-9.28V39.57z"/>
<path class="st1" d="M321.2,13.79h9.28v34.4h20.57V56H321.2V13.79z"/>
<path class="st1" d="M356.25,13.79h32.04v7.8h-22.76v9.04h22.76v7.21h-22.76V48.2h22.76V56h-32.04V13.79z"/>
<g>
	<path class="st1" d="M9.74,74.81h2.85c3.48,0,5.36,2.03,5.36,5.64c0,3.59-1.87,5.71-5.29,5.71H9.74V74.81z M12.46,84.98
		c2.68,0,3.99-1.67,3.99-4.54c0-2.88-1.32-4.47-3.99-4.47h-1.28v9.01H12.46z"/>
	<path class="st1" d="M41.43,81.75l-3.41-6.94h1.53l1.46,3.2c0.37,0.84,0.71,1.63,1.12,2.48h0.06c0.4-0.85,0.79-1.64,1.13-2.48
		l1.47-3.2h1.49l-3.41,6.94v4.41h-1.44V81.75z"/>
	<path class="st1" d="M63.48,86.83c0.82-0.7,1.61-1.94,2.11-3.08l1.08,0.28c-0.51,1.21-1.3,2.51-2.14,3.31L63.48,86.83z
		 M75.68,82.82h-10.3v-4.92h4.44V73.2h1.15v1.66h5.85v1.08h-5.85v1.95h4.71V82.82z M74.52,78.98h-8.04v2.76h8.04V78.98z
		 M69.17,84.07c0.2,0.98,0.37,2.25,0.39,2.99l-1.15,0.16c0-0.77-0.14-2.06-0.34-3.05L69.17,84.07z M72.28,83.95
		c0.48,0.93,0.98,2.18,1.16,2.96l-1.12,0.26c-0.15-0.76-0.62-2.04-1.08-2.99L72.28,83.95z M75.39,83.65
		c0.79,0.98,1.67,2.26,2.06,3.13l-1.08,0.43c-0.36-0.85-1.21-2.18-1.98-3.17L75.39,83.65z"/>
	<path class="st1" d="M96.92,81.24c-0.03,0.29-0.03,0.74,0,0.96c-3.86,0.79-4.37,0.93-4.69,1.11c-0.06-0.23-0.22-0.74-0.36-1.05
		c0.33-0.06,0.68-0.43,1.15-1.01c0.29-0.31,0.9-1.08,1.56-2.09c-1.86,0.25-2.23,0.34-2.46,0.46c-0.05-0.25-0.23-0.79-0.36-1.1
		c0.28-0.06,0.54-0.42,0.88-0.94c0.33-0.51,1.44-2.48,2.06-4.32l1.08,0.5c-0.68,1.59-1.56,3.27-2.48,4.58l1.94-0.19
		c0.36-0.57,0.68-1.15,0.98-1.72l0.96,0.59c-0.99,1.7-2.14,3.39-3.33,4.77L96.92,81.24z M97.15,84.89l-5.06,1.5l-0.23-1.11
		c1.27-0.29,3.22-0.85,5.12-1.36L97.15,84.89z M105.6,81.21c-0.77,1.21-1.81,2.31-3.03,3.22c0.48,1.13,1.07,1.77,1.73,1.77
		c0.42,0,0.59-0.37,0.65-1.73c0.25,0.26,0.59,0.51,0.85,0.6c-0.2,1.73-0.56,2.25-1.61,2.25c-1.1,0-1.92-0.82-2.55-2.21
		c-1.22,0.8-2.6,1.49-4.04,1.98c-0.15-0.29-0.45-0.68-0.71-0.95c1.58-0.48,3.07-1.18,4.37-2.04c-0.33-0.97-0.56-2.12-0.76-3.41
		l-2.94,0.57l-0.2-1.04l3-0.56c-0.08-0.67-0.14-1.36-0.19-2.07l-2.29,0.36l-0.2-1.04l2.43-0.36c-0.06-1.08-0.09-2.2-0.11-3.36h1.13
		c0,1.12,0.02,2.17,0.06,3.19l3.7-0.54l0.19,1.01l-3.82,0.59c0.06,0.71,0.12,1.38,0.2,2.03l3.86-0.73l0.2,1.01l-3.93,0.74
		c0.17,1.1,0.39,2.09,0.63,2.93c0.98-0.79,1.81-1.67,2.43-2.65L105.6,81.21z M104.05,75.52c-0.48-0.42-1.46-1.02-2.21-1.39
		l0.65-0.63c0.76,0.33,1.75,0.91,2.23,1.32L104.05,75.52z"/>
	<path class="st1" d="M127.55,75.34c-0.19,0.65-0.4,1.35-0.6,1.94h6.21v10.08h-1.16v-0.82h-9.89v0.82h-1.12V77.27h4.78
		c0.17-0.59,0.33-1.3,0.45-1.94h-5.93v-1.1h13.61v1.1H127.55z M122.1,85.46h2.2v-7.12h-2.2V85.46z M128.62,78.34h-3.27v1.7h3.27
		V78.34z M128.62,80.99h-3.27v1.73h3.27V80.99z M125.35,85.46h3.27v-1.8h-3.27V85.46z M131.99,78.34h-2.32v7.12h2.32V78.34z"/>
	<path class="st1" d="M155.49,85.25c-2.51,0.48-5.17,0.93-7.03,1.27l-0.19-1.18c0.84-0.12,1.9-0.29,3.07-0.46v-2.52h-2.66V81.3h2.66
		v-1.75h1.15v1.75h2.66v1.05h-2.66v2.32c0.97-0.17,1.97-0.34,2.96-0.5L155.49,85.25z M161.25,77.15c-0.36,2.54-0.93,4.63-1.9,6.3
		c0.85,1.25,1.89,2.26,3.2,2.86c-0.26,0.22-0.6,0.67-0.79,0.96c-1.25-0.67-2.26-1.61-3.08-2.8c-0.9,1.18-2.03,2.12-3.53,2.88
		c-0.11-0.26-0.45-0.79-0.68-1.02c1.55-0.71,2.71-1.67,3.56-2.93c-0.68-1.27-1.22-2.73-1.61-4.34c-0.34,0.68-0.68,1.29-1.08,1.83
		c-0.19-0.22-0.6-0.67-0.87-0.87c0.25-0.33,0.5-0.68,0.7-1.08l-0.93,0.51c-0.09-0.22-0.2-0.45-0.34-0.71
		c-4.16,0.37-4.71,0.45-5.05,0.6v-0.02c-0.06-0.23-0.23-0.77-0.36-1.07c0.22-0.05,0.45-0.29,0.7-0.67c0.23-0.29,0.85-1.27,1.33-2.34
		h-2.06v-1.05h6.86v1.05h-3.54c-0.5,1.01-1.1,2-1.69,2.82l3.28-0.26c-0.29-0.48-0.6-0.99-0.9-1.41l0.87-0.43
		c0.68,0.93,1.47,2.21,1.83,2.97c0.88-1.56,1.5-3.62,1.9-5.74l1.13,0.2c-0.17,0.91-0.39,1.81-0.65,2.66h4.8v1.08H161.25z
		 M157.1,77.44c0.34,1.78,0.87,3.42,1.58,4.83c0.7-1.39,1.11-3.1,1.39-5.12h-2.86L157.1,77.44z"/>
	<path class="st1" d="M190.28,76.58c0,0-0.02,0.43-0.03,0.6c-0.34,6.35-0.67,8.65-1.35,9.43c-0.36,0.43-0.73,0.56-1.32,0.62
		c-0.54,0.05-1.53,0.02-2.48-0.05c-0.02-0.34-0.16-0.84-0.39-1.18c1.05,0.09,2.04,0.11,2.43,0.11c0.33,0,0.53-0.05,0.71-0.23
		c0.56-0.53,0.9-2.71,1.19-8.16h-5.28c-0.22,3.2-1.24,6.95-5.73,9.69c-0.19-0.28-0.6-0.73-0.88-0.91c4.2-2.49,5.19-5.88,5.42-8.78
		h-4.95v-1.15h5.02c0-0.23,0-0.45,0-0.67v-2.68h1.19v2.68c0,0.22,0,0.43,0,0.67H190.28z"/>
	<path class="st1" d="M218.89,80.48h-6.12v5.19c0,0.85-0.23,1.21-0.8,1.39c-0.57,0.2-1.58,0.22-3.14,0.22
		c-0.08-0.33-0.31-0.87-0.5-1.19c1.27,0.03,2.45,0.03,2.8,0.02c0.33-0.02,0.45-0.11,0.45-0.43v-5.19h-6.39v-1.13h6.39v-3.9h-5.32
		v-1.13h11.55v1.13h-5.03v3.9h6.12V80.48z"/>
	<path class="st1" d="M238.27,83.45c0.09,0.29,0.28,0.73,0.42,0.94c-2.72,2.01-3.14,2.35-3.39,2.63c-0.11-0.26-0.4-0.74-0.62-0.96
		c0.29-0.19,0.77-0.7,0.77-1.39v-5.53h-2.17v-1.1h3.28v6.63L238.27,83.45z M236.83,76.61c-0.5-0.65-1.52-1.69-2.35-2.41l0.74-0.7
		c0.84,0.68,1.89,1.67,2.39,2.29L236.83,76.61z M241.24,75.49c0,1.44-0.5,3.11-2.71,4.18c-0.14-0.23-0.53-0.68-0.74-0.85
		c2.03-0.93,2.37-2.21,2.37-3.36v-1.7h4.89v3.59c0,0.43,0.05,0.57,0.28,0.57h1.07c0.22,0,0.54-0.03,0.73-0.08
		c0.02,0.29,0.06,0.73,0.11,0.99c-0.2,0.06-0.51,0.08-0.82,0.08h-1.16c-1.05,0-1.29-0.45-1.29-1.59v-2.48h-2.72V75.49z
		 M246.46,80.28c-0.6,1.92-1.66,3.41-2.97,4.52c1.11,0.73,2.45,1.25,3.93,1.58c-0.26,0.25-0.56,0.7-0.71,1.02
		c-1.58-0.39-2.99-1.02-4.15-1.89c-1.24,0.85-2.66,1.44-4.13,1.86c-0.09-0.31-0.36-0.76-0.57-1.02c1.36-0.31,2.68-0.82,3.82-1.55
		c-1.08-1.01-1.95-2.23-2.59-3.64l0.22-0.08h-0.79V80h7.03l0.2-0.05L246.46,80.28z M240.17,81.08c0.56,1.18,1.39,2.21,2.42,3.06
		c1.02-0.82,1.86-1.84,2.42-3.06H240.17z"/>
	<path class="st1" d="M267.13,83.34c0.08,0.29,0.28,0.77,0.37,1.01c-2.88,2.04-3.31,2.38-3.56,2.71c-0.11-0.31-0.4-0.8-0.6-1.05
		c0.29-0.2,0.74-0.63,0.74-1.28v-5.54h-2.43v-1.13h3.59v6.56L267.13,83.34z M265.47,76.64c-0.51-0.67-1.58-1.7-2.43-2.42l0.74-0.74
		c0.85,0.68,1.94,1.67,2.46,2.31L265.47,76.64z M275.68,79.49h-3.92v7.87h-1.19v-7.87h-3.93v-1.16h3.93v-5.06h1.19v5.06h3.92V79.49z
		"/>
	<path class="st1" d="M303.84,80.63h-6.3v6.69h-1.25v-6.69h-6.18v-1.18h6.18v-3.98h-5.39v-1.16h12.23v1.16h-5.59v3.98h6.3V80.63z"/>
	<path class="st1" d="M321.23,76.02c-0.68,0.51-1.38,0.96-2.04,1.33c-0.17-0.22-0.59-0.64-0.85-0.82c1.69-0.79,3.41-2.06,4.44-3.39
		l1.05,0.39c-0.4,0.53-0.91,1.05-1.46,1.55v4.03h-1.14V76.02z M325.99,82.75c0,1.55-0.73,3.42-6.56,4.6
		c-0.11-0.26-0.45-0.7-0.71-0.93c5.62-1.01,6.08-2.54,6.08-3.7v-1.32h1.19V82.75z M329.16,84.5v-3.72h-7.31v3.81h-1.16v-4.88h9.66
		v4.78H329.16z M325.75,76.5c-0.67,0.14-1.33,0.26-1.98,0.39c-0.05-0.23-0.2-0.6-0.34-0.84c0.77-0.15,1.55-0.31,2.32-0.5v-2.28h1.13
		v1.98c1.67-0.45,3.22-0.98,4.24-1.56l0.77,0.82c-1.31,0.68-3.11,1.25-5.02,1.7v1.05c0,0.43,0.14,0.53,0.91,0.53h2.63
		c0.6,0,0.73-0.22,0.79-1.58c0.25,0.19,0.71,0.36,1.02,0.42c-0.12,1.7-0.48,2.15-1.72,2.15h-2.82c-1.55,0-1.95-0.31-1.95-1.52V76.5z
		 M326.45,84.27c1.89,0.54,4.38,1.45,5.73,2.18l-0.65,0.9c-1.27-0.71-3.76-1.69-5.7-2.28L326.45,84.27z"/>
	<path class="st1" d="M358.36,79.02c0,0-0.02,0.4-0.03,0.56c-0.22,4.69-0.42,6.46-0.94,7.04c-0.34,0.39-0.67,0.51-1.21,0.54
		c-0.51,0.05-1.47,0.03-2.43-0.03c-0.02-0.34-0.16-0.82-0.37-1.15c1.01,0.09,1.94,0.11,2.31,0.11c0.33,0,0.5-0.05,0.67-0.2
		c0.39-0.39,0.6-1.9,0.79-5.74h-4.2c-0.42,3.05-1.44,5.82-5.33,7.24c-0.15-0.29-0.48-0.76-0.73-0.97c3.64-1.22,4.49-3.67,4.85-6.27
		h-2.97v-1.07c-0.39,0.42-0.8,0.79-1.21,1.13c-0.22-0.23-0.7-0.67-0.99-0.88c1.84-1.33,3.41-3.47,4.3-5.82l1.22,0.34
		c-0.79,1.97-1.97,3.78-3.27,5.17H358.36z M356.22,73.48c0.96,2.09,2.82,4.41,4.43,5.62c-0.31,0.23-0.71,0.67-0.93,0.97
		c-1.61-1.41-3.45-3.89-4.54-6.16L356.22,73.48z"/>
	<path class="st1" d="M388.77,84.38h-6.29v1.8c0,0.64-0.19,0.9-0.73,1.07c-0.53,0.14-1.42,0.14-2.8,0.14
		c-0.06-0.31-0.25-0.68-0.39-0.96c1.04,0.03,2.09,0.03,2.35,0.02c0.29-0.02,0.37-0.08,0.37-0.29v-1.76h-6.22v-1.01h6.22v-0.93
		c1.04-0.22,2.18-0.54,3.14-0.93h-7.93v-0.95h9.75l0.25-0.06l0.77,0.65c-1.32,0.76-3.08,1.39-4.8,1.81v0.4h6.29V84.38z
		 M388.58,75.55h-13.38v-1.01h6.21c-0.16-0.4-0.36-0.87-0.54-1.22l1.15-0.23c0.25,0.43,0.51,1.01,0.68,1.45h5.88V75.55z
		 M377.16,79.64v-3.1h9.6v3.1H377.16z M378.29,78.79h7.28V77.4h-7.28V78.79z"/>
</g>
</svg>
